<mxfile host="65bd71144e">
    <diagram id="A-Jqnj1o6yojj4LErJtM" name="PÃ¡gina-1">
        <mxGraphModel dx="804" dy="488" grid="1" gridSize="10" guides="1" tooltips="1" connect="1" arrows="1" fold="1" page="1" pageScale="1" pageWidth="827" pageHeight="1169" math="0" shadow="0">
            <root>
                <mxCell id="0"/>
                <mxCell id="1" parent="0"/>
                <mxCell id="6" value="" style="edgeStyle=none;html=1;" edge="1" parent="1" source="2" target="5">
                    <mxGeometry relative="1" as="geometry"/>
                </mxCell>
                <mxCell id="2" value="Inicio" style="ellipse;whiteSpace=wrap;html=1;fillColor=#CCFFE6;" vertex="1" parent="1">
                    <mxGeometry x="340" y="40" width="120" height="80" as="geometry"/>
                </mxCell>
                <mxCell id="8" value="" style="edgeStyle=none;html=1;" edge="1" parent="1" source="5" target="7">
                    <mxGeometry relative="1" as="geometry"/>
                </mxCell>
                <mxCell id="5" value="X , Y" style="shape=parallelogram;perimeter=parallelogramPerimeter;whiteSpace=wrap;html=1;fixedSize=1;fillColor=#CCFFE6;" vertex="1" parent="1">
                    <mxGeometry x="340" y="200" width="120" height="60" as="geometry"/>
                </mxCell>
                <mxCell id="10" value="" style="edgeStyle=none;html=1;" edge="1" parent="1" source="7" target="9">
                    <mxGeometry relative="1" as="geometry">
                        <Array as="points">
                            <mxPoint x="300" y="600"/>
                        </Array>
                    </mxGeometry>
                </mxCell>
                <mxCell id="12" value="" style="edgeStyle=none;html=1;" edge="1" parent="1" source="7" target="11">
                    <mxGeometry relative="1" as="geometry">
                        <Array as="points">
                            <mxPoint x="100" y="550"/>
                        </Array>
                    </mxGeometry>
                </mxCell>
                <mxCell id="14" value="" style="edgeStyle=none;html=1;" edge="1" parent="1" source="7" target="13">
                    <mxGeometry relative="1" as="geometry">
                        <Array as="points">
                            <mxPoint x="700" y="550"/>
                        </Array>
                    </mxGeometry>
                </mxCell>
                <mxCell id="16" value="" style="edgeStyle=none;html=1;" edge="1" parent="1" source="7" target="15">
                    <mxGeometry relative="1" as="geometry">
                        <Array as="points">
                            <mxPoint x="500" y="600"/>
                        </Array>
                    </mxGeometry>
                </mxCell>
                <mxCell id="28" value="" style="edgeStyle=none;html=1;" edge="1" parent="1" source="7" target="27">
                    <mxGeometry relative="1" as="geometry"/>
                </mxCell>
                <mxCell id="7" value="( X , Y )" style="rhombus;whiteSpace=wrap;html=1;fillColor=#CCFFE6;" vertex="1" parent="1">
                    <mxGeometry x="360" y="320" width="80" height="80" as="geometry"/>
                </mxCell>
                <mxCell id="36" value="" style="edgeStyle=none;html=1;entryX=0;entryY=0.25;entryDx=0;entryDy=0;" edge="1" parent="1" source="9" target="29">
                    <mxGeometry relative="1" as="geometry">
                        <mxPoint x="250" y="960" as="targetPoint"/>
                        <Array as="points">
                            <mxPoint x="260" y="840"/>
                        </Array>
                    </mxGeometry>
                </mxCell>
                <mxCell id="9" value="si ( X &amp;lt; 0 y Y &amp;gt; 0 ) se ubica en el cuadrante DOS" style="shape=document;whiteSpace=wrap;html=1;boundedLbl=1;fillColor=#CCFFE6;" vertex="1" parent="1">
                    <mxGeometry x="200" y="640" width="120" height="80" as="geometry"/>
                </mxCell>
                <mxCell id="38" value="" style="edgeStyle=none;html=1;entryX=0;entryY=0.5;entryDx=0;entryDy=0;" edge="1" parent="1" source="11" target="29">
                    <mxGeometry relative="1" as="geometry">
                        <mxPoint x="100" y="960" as="targetPoint"/>
                        <Array as="points">
                            <mxPoint x="100" y="840"/>
                        </Array>
                    </mxGeometry>
                </mxCell>
                <mxCell id="11" value="si ( X &amp;gt; 0 y Y &amp;gt; 0 ) se ubica en el cuadrante UNO" style="shape=document;whiteSpace=wrap;html=1;boundedLbl=1;fillColor=#CCFFE6;" vertex="1" parent="1">
                    <mxGeometry x="40" y="680" width="120" height="80" as="geometry"/>
                </mxCell>
                <mxCell id="32" value="" style="edgeStyle=none;html=1;entryX=1;entryY=0.5;entryDx=0;entryDy=0;" edge="1" parent="1" source="13" target="29">
                    <mxGeometry relative="1" as="geometry">
                        <mxPoint x="460" y="990" as="targetPoint"/>
                        <Array as="points">
                            <mxPoint x="700" y="840"/>
                        </Array>
                    </mxGeometry>
                </mxCell>
                <mxCell id="13" value="si ( X &amp;gt; 0 y Y &amp;lt; 0 ) se ubica en el cuadrante CUATRO&amp;nbsp;" style="shape=document;whiteSpace=wrap;html=1;boundedLbl=1;fillColor=#CCFFE6;" vertex="1" parent="1">
                    <mxGeometry x="640" y="680" width="120" height="80" as="geometry"/>
                </mxCell>
                <mxCell id="30" value="" style="edgeStyle=none;html=1;entryX=1;entryY=0.25;entryDx=0;entryDy=0;" edge="1" parent="1" source="15" target="29">
                    <mxGeometry relative="1" as="geometry">
                        <Array as="points">
                            <mxPoint x="540" y="840"/>
                        </Array>
                    </mxGeometry>
                </mxCell>
                <mxCell id="15" value="si ( X &amp;lt; o y Y &amp;lt; 0 ) se ubica en el cuadrante TRES" style="shape=document;whiteSpace=wrap;html=1;boundedLbl=1;fillColor=#CCFFE6;" vertex="1" parent="1">
                    <mxGeometry x="480" y="640" width="120" height="80" as="geometry"/>
                </mxCell>
                <mxCell id="34" value="" style="edgeStyle=none;html=1;entryX=0.5;entryY=0;entryDx=0;entryDy=0;" edge="1" parent="1" source="27" target="29">
                    <mxGeometry relative="1" as="geometry">
                        <mxPoint x="400" y="960" as="targetPoint"/>
                    </mxGeometry>
                </mxCell>
                <mxCell id="27" value="si ( X = 0 y Y = 0 ) se ubica en el origen" style="shape=document;whiteSpace=wrap;html=1;boundedLbl=1;fillColor=#CCFFE6;" vertex="1" parent="1">
                    <mxGeometry x="340" y="600" width="120" height="80" as="geometry"/>
                </mxCell>
                <mxCell id="40" value="" style="edgeStyle=none;html=1;" edge="1" parent="1" source="29" target="39">
                    <mxGeometry relative="1" as="geometry"/>
                </mxCell>
                <mxCell id="29" value="El punto se ubica en el cuadrante 1, 2, 3, 4 o en el origen" style="shape=document;whiteSpace=wrap;html=1;boundedLbl=1;fillColor=#CCFFE6;" vertex="1" parent="1">
                    <mxGeometry x="340" y="840" width="120" height="80" as="geometry"/>
                </mxCell>
                <mxCell id="39" value="Fin" style="ellipse;whiteSpace=wrap;html=1;fillColor=#CCFFE6;" vertex="1" parent="1">
                    <mxGeometry x="340" y="960" width="120" height="60" as="geometry"/>
                </mxCell>
            </root>
        </mxGraphModel>
    </diagram>
</mxfile>